<svg viewBox="-933.5 -468.5 1867 937" width="1867" height="937" style="background-color: rgb(255, 255, 255);" xmlns="http://www.w3.org/2000/svg"><path d="M-259.91176010463255,-8.62527140864662L-297.4856581679669,64.04023503995663M-230.93288362048273,-5.207656567065814L-259.91176010463255,-8.62527140864662M-259.91176010463255,-129.7767272876528L-259.91176010463255,-8.62527140864662M-230.9328836204827,-126.35911244607199L-230.93288362048273,-5.207656567065814M-230.93288362048273,-5.207656567065814L-268.50678168381705,67.45784988153743" style="fill:none;stroke:rgb(0,0,0);stroke-width:1;stroke-linecap:round"></path><path d="M-230.93288362048276,-5.207656567065814L-259.91176010463255,-8.625271408646622L-259.91176010463255,-129.7767272876528z" style="fill:rgb(238,238,238); fill-opacity: 0.4"></path><path d="M-180.47595631784023,-3.1162073571978177L-213.45287161061557,60.659029559212726M-180.47595631784023,-107.11690412833853L-180.47595631784023,-3.1162073571978177M-96.6461744764674,6.7702320547738175L-180.47595631784023,-3.1162073571978177" style="fill:none;stroke:rgb(0,0,0);stroke-width:1;stroke-linecap:round"></path><path d="M-297.48565816796696,64.04023503995663L-259.91176010463255,-8.625271408646622L-230.93288362048276,-5.207656567065814zM-230.93288362048276,-126.35911244607199L-230.93288362048276,-5.207656567065814L-259.91176010463255,-129.7767272876528z" style="fill:rgb(238,238,238); fill-opacity: 0.4"></path><path d="M-96.6461744764674,6.7702320547738175L-129.62308976924274,70.54546897118436M-96.64617447646738,-97.23046471636688L-96.6461744764674,6.7702320547738175" style="fill:none;stroke:rgb(0,0,0);stroke-width:1;stroke-linecap:round"></path><path d="M-96.64617447646738,6.770232054773818L-180.47595631784023,-3.1162073571978186L-180.47595631784023,-107.11690412833853z" style="fill:rgb(238,238,238); fill-opacity: 0.4"></path><path d="M-263.2849748531316,-93.29746009087519L-263.2849748531316,-85.61355598059833M-234.30609836898174,-82.19594113901753L-263.2849748531316,-85.61355598059833M-263.2849748531316,-85.61355598059833L-265.3816979307679,-81.5586281670906" style="fill:none;stroke:rgb(0,0,0);stroke-width:1;stroke-linecap:round"></path><path d="M-277.26699601790415,-91.63834800680976h27.170087046978452v13.585043523489162h-27.170087046978452z" style="fill:rgb(255,255,255)"></path><path d="M-234.3060983689818,-82.19594113901753L-263.28497485313164,-85.61355598059833L-263.28497485313164,-93.29746009087518z" style="fill:rgb(153,221,255); fill-opacity: 0.4"></path><path d="M-234.30609836898174,-89.87984524929438L-263.2849748531316,-93.29746009087519M-263.2849748531316,-93.29746009087519L-265.3816979307679,-89.24253227736743" style="fill:none;stroke:rgb(0,0,0);stroke-width:1;stroke-linecap:round"></path><path d="M-265.381697930768,-81.5586281670906L-263.28497485313164,-85.61355598059833L-234.3060983689818,-82.19594113901753zM-263.28497485313164,-93.29746009087518L-263.28497485313164,-85.61355598059833L-265.381697930768,-89.24253227736745z" style="fill:rgb(153,221,255); fill-opacity: 0.4"></path><path d="M-234.30609836898174,-82.19594113901753L-236.40282144661808,-78.14101332550979M-234.30609836898174,-89.87984524929438L-234.30609836898174,-82.19594113901753M-234.30609053977233,-82.19594190173389L-236.40281361740867,-78.14101408822614M-234.30609053977233,-82.19594190173389L-184.35656644776495,-74.32340810283779M-234.30609053977233,-89.87984373545761L-234.30609053977233,-82.19594190173389" style="fill:none;stroke:rgb(0,0,0);stroke-width:1;stroke-linecap:round"></path><path d="M-263.28497485313164,-85.61355598059833L-265.381697930768,-81.5586281670906L-265.381697930768,-89.24253227736745zM-234.3060983689818,-89.87984524929438L-234.3060983689818,-82.19594113901753L-263.28497485313164,-93.29746009087518z" style="fill:rgb(153,221,255); fill-opacity: 0.4"></path><path d="M-265.3816979307679,-89.24253227736743L-265.3816979307679,-81.5586281670906M-265.3816979307679,-81.5586281670906L-236.40282144661808,-78.14101332550979M-259.91176010463255,-129.7767272876528L-297.4856581679669,-57.11122083904956M-230.9328836204827,-126.35911244607199L-259.91176010463255,-129.7767272876528" style="fill:none;stroke:rgb(0,0,0);stroke-width:1;stroke-linecap:round"></path><path d="M-236.40282144661813,-78.14101332550979L-265.381697930768,-81.5586281670906L-234.3060983689818,-82.19594113901753z" style="fill:rgb(153,221,255); fill-opacity: 0.4"></path><path d="M-234.30609865015828,-89.87984517048045L-234.30609865015828,-82.1959412037699L-236.4028216886194,-78.14101346602452z" style="fill:rgb(255,187,187); fill-opacity: 0.4"></path><path d="M-236.40282144661813,-78.14101332550979L-234.3060983689818,-82.19594113901753L-234.3060983689818,-89.87984524929438z" style="fill:rgb(153,221,255); fill-opacity: 0.4"></path><path d="M-234.30609836898174,-89.87984524929438L-236.40282144661808,-85.82491743578663M-234.30609053977233,-89.87984373545761L-236.40281361740867,-85.82491592194985M-234.30609053977233,-89.87984373545761L-184.35656644776495,-74.32340810283779" style="fill:none;stroke:rgb(0,0,0);stroke-width:1;stroke-linecap:round"></path><path d="M-236.40282144661813,-85.82491743578663L-234.3060983689818,-89.87984524929438L-263.28497485313164,-93.29746009087518zM-265.381697930768,-89.24253227736745L-236.40282144661813,-85.82491743578663L-263.28497485313164,-93.29746009087518z" style="fill:rgb(153,221,255); fill-opacity: 0.4"></path><path d="M-265.3816979307679,-89.24253227736743L-236.40282144661808,-85.82491743578663" style="fill:none;stroke:rgb(0,0,0);stroke-width:1;stroke-linecap:round"></path><path d="M-265.381697930768,-89.24253227736745L-265.381697930768,-81.5586281670906L-236.40282144661813,-85.82491743578663zM-265.381697930768,-81.5586281670906L-236.40282144661813,-78.14101332550979L-236.40282144661813,-85.82491743578663z" style="fill:rgb(153,221,255); fill-opacity: 0.4"></path><path d="M-278.96674117308066,-99.35451894348205h27.170087046978452v13.585043523489162h-27.170087046978452z" style="fill:rgb(255,255,255)"></path><path d="M-236.40282144661808,-85.82491743578663L-236.40282144661808,-78.14101332550979M-236.40281361740867,-78.14101408822614L-236.40281361740867,-85.82491592194985M-236.40281361740867,-78.14101408822614L-184.35656644776495,-74.32340810283779" style="fill:none;stroke:rgb(0,0,0);stroke-width:1;stroke-linecap:round"></path><path d="M-234.30609865015828,-89.87984517048045L-236.4028216886194,-78.14101346602452L-236.4028216886194,-85.82491743273509z" style="fill:rgb(255,187,187); fill-opacity: 0.4"></path><path d="M-236.40282144661813,-85.82491743578663L-236.40282144661813,-78.14101332550979L-234.3060983689818,-89.87984524929438z" style="fill:rgb(153,221,255); fill-opacity: 0.4"></path><path d="M-230.9328836204827,-126.35911244607199L-268.50678168381705,-53.69360599746876" style="fill:none;stroke:rgb(0,0,0);stroke-width:1;stroke-linecap:round"></path><path d="M-268.5067816838171,67.45784988153743L-230.93288362048276,-5.207656567065814L-230.93288362048276,-126.35911244607199z" style="fill:rgb(238,238,238); fill-opacity: 0.4"></path><path d="M-234.30609865015828,-82.1959412037699L-234.30609865015828,-89.87984517048045L-184.35657423065697,-74.32340929242946z" style="fill:rgb(255,187,187); fill-opacity: 0.4"></path><path d="M-46.23179525328688,8.617813216722753L-74.52663224023782,63.33821129923682M-46.23179525328688,-77.57981912256155L-46.23179525328688,8.617813216722753M48.29322795316145,19.76559261347825L-46.23179525328688,8.617813216722753" style="fill:none;stroke:rgb(0,0,0);stroke-width:1;stroke-linecap:round"></path><path d="M-236.4028216886194,-78.14101346602452L-234.30609865015828,-82.1959412037699L-184.35657423065697,-74.32340929242946z" style="fill:rgb(255,187,187); fill-opacity: 0.4"></path><path d="M-236.40281361740867,-85.82491592194985L-184.35656644776495,-74.32340810283779" style="fill:none;stroke:rgb(0,0,0);stroke-width:1;stroke-linecap:round"></path><path d="M-213.45287161061557,60.659029559212726L-180.47595631784023,-3.1162073571978186L-96.64617447646738,6.770232054773818z" style="fill:rgb(238,238,238); fill-opacity: 0.4"></path><path d="M-234.30609865015828,-89.87984517048045L-236.4028216886194,-85.82491743273509L-184.35657423065697,-74.32340929242946zM-236.4028216886194,-85.82491743273509L-236.4028216886194,-78.14101346602452L-184.35657423065697,-74.32340929242946z" style="fill:rgb(255,187,187); fill-opacity: 0.4"></path><path d="M-96.64617447646738,-97.23046471636688L-96.64617447646738,6.770232054773818L-180.47595631784023,-107.11690412833853z" style="fill:rgb(238,238,238); fill-opacity: 0.4"></path><path d="M-96.64617447646738,-97.23046471636688L-180.47595631784023,-107.11690412833853M-180.47595631784023,-107.11690412833853L-213.45287161061555,-43.341667211927984" style="fill:none;stroke:rgb(0,0,0);stroke-width:1;stroke-linecap:round"></path><path d="M-259.91176010463255,-129.7767272876528L-259.91176010463255,-8.625271408646622L-297.48565816796696,-57.111220839049565z" style="fill:rgb(238,238,238); fill-opacity: 0.4"></path><path d="M-50.29545000322522,11.331297060073545L-52.39217308086158,15.386224873581298M44.229573203223104,22.479076456829045L-50.29545000322522,11.331297060073545M-50.29545000322522,3.647392949796697L-50.29545000322522,11.331297060073545" style="fill:none;stroke:rgb(0,0,0);stroke-width:1;stroke-linecap:round"></path><path d="M-64.27747085616836,5.306505070637634h27.17008704697826v13.58504352348913h-27.17008704697826z" style="fill:rgb(255,255,255)"></path><path d="M-268.5067816838171,67.45784988153743L-297.48565816796696,64.04023503995663L-230.93288362048276,-5.207656567065814z" style="fill:rgb(238,238,238); fill-opacity: 0.4"></path><path d="M48.29322795316145,-66.43203972580606L48.29322795316145,19.76559261347825M48.29322795316145,19.76559261347825L19.9983909662105,74.4859906959923M-50.29545000322522,3.647392949796697L-52.39217308086158,7.7023207633044475M44.229573203223104,14.795172346552192L-50.29545000322522,3.647392949796697" style="fill:none;stroke:rgb(0,0,0);stroke-width:1;stroke-linecap:round"></path><path d="M48.29322795316144,19.765592613478255L-46.23179525328689,8.617813216722753L-46.23179525328688,-77.57981912256156z" style="fill:rgb(238,238,238); fill-opacity: 0.4"></path><path d="M-50.29545000322523,3.6473929497966995L-50.29545000322523,11.331297060073545L-52.39217308086158,7.702320763304449zM-50.29545000322523,11.331297060073545L-52.39217308086158,15.386224873581298L-52.39217308086158,7.702320763304449z" style="fill:rgb(153,221,255); fill-opacity: 0.4"></path><path d="M-52.39217308086158,7.7023207633044475L-52.39217308086158,15.386224873581298M-52.39217308086158,15.386224873581298L42.13285012558675,26.534004270336794" style="fill:none;stroke:rgb(0,0,0);stroke-width:1;stroke-linecap:round"></path><path d="M44.2295732032231,22.479076456829045L-50.29545000322523,11.331297060073545L-50.29545000322523,3.6473929497966995zM-52.39217308086158,15.386224873581298L-50.29545000322523,11.331297060073545L44.2295732032231,22.479076456829045z" style="fill:rgb(153,221,255); fill-opacity: 0.4"></path><path d="M-52.39217308086158,7.7023207633044475L42.13285012558675,18.850100160059945" style="fill:none;stroke:rgb(0,0,0);stroke-width:1;stroke-linecap:round"></path><path d="M-65.97721601134486,-2.4096658660346693h27.17008704697826v13.58504352348913h-27.17008704697826z" style="fill:rgb(255,255,255)"></path><path d="M-96.64617447646738,-97.23046471636688L-129.62308976924274,-33.45522779995634" style="fill:none;stroke:rgb(0,0,0);stroke-width:1;stroke-linecap:round"></path><path d="M-52.39217308086158,7.702320763304449L42.13285012558675,18.85010016005995L-50.29545000322523,3.6473929497966995z" style="fill:rgb(153,221,255); fill-opacity: 0.4"></path><path d="M-129.62308976924277,70.54546897118436L-96.64617447646738,6.770232054773818L-96.64617447646738,-97.23046471636688z" style="fill:rgb(238,238,238); fill-opacity: 0.4"></path><path d="M-199.90918875772488,21.05702367929197L-202.00591183536125,25.111951492799722M-199.90918875772488,13.37311956901512L-199.90918875772488,21.05702367929197M-116.07940691635204,30.943463091263606L-199.90918875772488,21.05702367929197" style="fill:none;stroke:rgb(0,0,0);stroke-width:1;stroke-linecap:round"></path><path d="M44.2295732032231,14.795172346552196L44.2295732032231,22.479076456829045L-50.29545000322523,3.6473929497966995z" style="fill:rgb(153,221,255); fill-opacity: 0.4"></path><path d="M-180.47595631784023,-107.11690412833853L-180.47595631784023,-3.1162073571978186L-213.45287161061557,-43.341667211927984z" style="fill:rgb(238,238,238); fill-opacity: 0.4"></path><path d="M-52.39217308086158,7.702320763304449L-52.39217308086158,15.386224873581298L42.13285012558675,18.85010016005995z" style="fill:rgb(153,221,255); fill-opacity: 0.4"></path><path d="M-213.89120984713674,15.032231661968202h27.170087046978196v13.58504352348913h-27.170087046978196z" style="fill:rgb(255,255,255)"></path><path d="M42.13285012558675,26.534004270336794L-52.39217308086158,15.386224873581298L44.2295732032231,22.479076456829045zM42.13285012558675,18.85010016005995L44.2295732032231,14.795172346552196L-50.29545000322523,3.6473929497966995z" style="fill:rgb(153,221,255); fill-opacity: 0.4"></path><path d="M-259.91176010463255,-8.625271408646622L-297.48565816796696,64.04023503995663L-297.48565816796696,-57.111220839049565z" style="fill:rgb(238,238,238); fill-opacity: 0.4"></path><path d="M44.22957226498343,22.479076855123438L42.13284918734708,26.534004668631187M44.22957226498343,22.479076855123438L94.41218043473036,29.834480705726616M44.22957226498343,14.79517274484659L44.22957226498343,22.479076855123438M44.229573203223104,22.479076456829045L42.13285012558675,26.534004270336794M44.229573203223104,14.795172346552192L44.229573203223104,22.479076456829045M-116.07940691635204,23.259558980986753L-199.90918875772488,13.37311956901512M-199.90918875772488,13.37311956901512L-202.00591183536125,17.428047382522873" style="fill:none;stroke:rgb(0,0,0);stroke-width:1;stroke-linecap:round"></path><path d="M-199.90918875772488,13.37311956901512L-199.90918875772488,21.057023679291976L-202.00591183536125,17.428047382522873zM-52.39217308086158,15.386224873581298L42.13285012558675,26.534004270336794L42.13285012558675,18.85010016005995zM-199.90918875772488,21.057023679291976L-202.00591183536125,25.111951492799726L-202.00591183536125,17.428047382522873z" style="fill:rgb(153,221,255); fill-opacity: 0.4"></path><path d="M-74.52663224023782,63.338211299236804L-46.23179525328689,8.617813216722753L48.29322795316144,19.765592613478255z" style="fill:rgb(238,238,238); fill-opacity: 0.4"></path><path d="M-116.07940691635204,30.943463091263606L-199.90918875772488,21.057023679291976L-199.90918875772488,13.37311956901512z" style="fill:rgb(153,221,255); fill-opacity: 0.4"></path><path d="M-202.00591183536125,25.111951492799722L-118.17612999398841,34.998390904771355M-202.00591183536125,17.428047382522873L-202.00591183536125,25.111951492799722" style="fill:none;stroke:rgb(0,0,0);stroke-width:1;stroke-linecap:round"></path><path d="M-268.5067816838171,-53.69360599746876L-230.93288362048276,-126.35911244607199L-259.91176010463255,-129.7767272876528z" style="fill:rgb(238,238,238); fill-opacity: 0.4"></path><path d="M44.22957261021726,14.795172388590624L44.22957261021726,22.479076355301196L42.13284957175614,26.534004093046565z" style="fill:rgb(255,187,187); fill-opacity: 0.4"></path><path d="M42.13285012558675,26.534004270336794L44.2295732032231,22.479076456829045L44.2295732032231,14.795172346552196z" style="fill:rgb(153,221,255); fill-opacity: 0.4"></path><path d="M44.22957226498343,14.79517274484659L94.41218043473036,29.834480705726616M44.22957226498343,14.79517274484659L42.13284918734708,18.85010055835434M44.229573203223104,14.795172346552192L42.13285012558675,18.850100160059945" style="fill:none;stroke:rgb(0,0,0);stroke-width:1;stroke-linecap:round"></path><path d="M-202.00591183536125,25.111951492799726L-199.90918875772488,21.057023679291976L-116.07940691635204,30.943463091263606z" style="fill:rgb(153,221,255); fill-opacity: 0.4"></path><path d="M48.29322795316145,-66.43203972580606L48.29322795316144,19.765592613478255L-46.23179525328688,-77.57981912256156z" style="fill:rgb(238,238,238); fill-opacity: 0.4"></path><path d="M42.13284918734708,26.534004668631187L42.13284918734708,18.85010055835434M42.13284918734708,26.534004668631187L94.41218043473036,29.834480705726616M42.13285012558675,18.850100160059945L42.13285012558675,26.534004270336794M-202.00591183536125,17.428047382522873L-118.17612999398841,27.314486794494506M200.77510813973598,33.363771130933905L98.66169369486323,21.321057158838812M98.66169369486325,-46.31168500619269L98.66169369486323,21.321057158838812M98.66169369486323,21.321057158838812L75.14076444202809,66.80902418898512" style="fill:none;stroke:rgb(0,0,0);stroke-width:1;stroke-linecap:round"></path><path d="M44.22957261021726,14.795172388590624L42.13284957175614,26.534004093046565L42.13284957175614,18.85010012633599z" style="fill:rgb(255,187,187); fill-opacity: 0.4"></path><path d="M42.13285012558675,18.85010016005995L42.13285012558675,26.534004270336794L44.2295732032231,14.795172346552196z" style="fill:rgb(153,221,255); fill-opacity: 0.4"></path><path d="M44.22957261021726,22.479076355301196L44.22957261021726,14.795172388590624L94.41217594788014,29.834479299362002z" style="fill:rgb(255,187,187); fill-opacity: 0.4"></path><path d="M-46.23179525328688,-77.57981912256155L-74.52663224023782,-22.8594210400475M48.29322795316145,-66.43203972580606L-46.23179525328688,-77.57981912256155" style="fill:none;stroke:rgb(0,0,0);stroke-width:1;stroke-linecap:round"></path><path d="M-215.59095500231322,7.3160607252958965h27.170087046978196v13.58504352348913h-27.170087046978196z" style="fill:rgb(255,255,255)"></path><path d="M-129.62308976924277,70.54546897118436L-213.45287161061557,60.659029559212726L-96.64617447646738,6.770232054773818z" style="fill:rgb(238,238,238); fill-opacity: 0.4"></path><path d="M42.13284957175614,26.534004093046565L44.22957261021726,22.479076355301196L94.41217594788014,29.834479299362002z" style="fill:rgb(255,187,187); fill-opacity: 0.4"></path><path d="M-116.07940691635204,23.259558980986757L-116.07940691635204,30.943463091263606L-199.90918875772488,13.37311956901512zM-202.00591183536125,17.428047382522873L-118.17612999398841,27.314486794494506L-199.90918875772488,13.37311956901512z" style="fill:rgb(153,221,255); fill-opacity: 0.4"></path><path d="M42.13284918734708,18.85010055835434L94.41218043473036,29.834480705726616" style="fill:none;stroke:rgb(0,0,0);stroke-width:1;stroke-linecap:round"></path><path d="M-202.00591183536125,17.428047382522873L-202.00591183536125,25.111951492799726L-118.17612999398841,27.314486794494506z" style="fill:rgb(153,221,255); fill-opacity: 0.4"></path><path d="M44.22957261021726,14.795172388590624L42.13284957175614,18.85010012633599L94.41217594788014,29.834479299362002z" style="fill:rgb(255,187,187); fill-opacity: 0.4"></path><path d="M-118.17612999398841,34.998390904771355L-202.00591183536125,25.111951492799726L-116.07940691635204,30.943463091263606z" style="fill:rgb(153,221,255); fill-opacity: 0.4"></path><path d="M42.13284957175614,18.85010012633599L42.13284957175614,26.534004093046565L94.41217594788014,29.834479299362002z" style="fill:rgb(255,187,187); fill-opacity: 0.4"></path><path d="M-116.07940691635204,23.259558980986753L-116.07940691635204,30.943463091263606M-116.07940691635204,30.943463091263606L-118.17612999398841,34.998390904771355M-116.07940387942938,30.943462206373855L-118.17612695706576,34.998390019881604M-116.07940387942938,30.943462206373855L-63.80540365012924,34.15131130588659M-116.07940387942938,23.25956037265015L-116.07940387942938,30.943462206373855" style="fill:none;stroke:rgb(0,0,0);stroke-width:1;stroke-linecap:round"></path><path d="M-118.17612999398841,27.314486794494506L-116.07940691635204,23.259558980986757L-199.90918875772488,13.37311956901512z" style="fill:rgb(153,221,255); fill-opacity: 0.4"></path><path d="M-180.47595631784023,-3.1162073571978186L-213.45287161061557,60.659029559212726L-213.45287161061557,-43.341667211927984z" style="fill:rgb(238,238,238); fill-opacity: 0.4"></path><path d="M-202.00591183536125,25.111951492799726L-118.17612999398841,34.998390904771355L-118.17612999398841,27.314486794494506z" style="fill:rgb(153,221,255); fill-opacity: 0.4"></path><path d="M-116.07940727288918,23.25955905091305L-116.07940727288918,30.943463017623625L-118.17613031135033,34.998390755368995z" style="fill:rgb(255,187,187); fill-opacity: 0.4"></path><path d="M-118.17612999398841,34.998390904771355L-116.07940691635204,30.943463091263606L-116.07940691635204,23.259558980986757z" style="fill:rgb(153,221,255); fill-opacity: 0.4"></path><path d="M-116.07940691635204,23.259558980986753L-118.17612999398841,27.314486794494506M-116.07940387942938,23.25956037265015L-63.80540365012924,34.15131130588659M-116.07940387942938,23.25956037265015L-118.17612695706576,27.314488186157906" style="fill:none;stroke:rgb(0,0,0);stroke-width:1;stroke-linecap:round"></path><path d="M-116.07940727288918,30.943463017623625L-116.07940727288918,23.25955905091305L-63.80540214112742,34.15131192608746z" style="fill:rgb(255,187,187); fill-opacity: 0.4"></path><path d="M-118.17612999398841,27.314486794494506L-118.17612999398841,34.998390904771355M-118.17612695706576,34.998390019881604L-63.80540365012924,34.15131130588659M-118.17612695706576,34.998390019881604L-118.17612695706576,27.314488186157906" style="fill:none;stroke:rgb(0,0,0);stroke-width:1;stroke-linecap:round"></path><path d="M-118.17613031135033,34.998390755368995L-116.07940727288918,30.943463017623625L-63.80540214112742,34.15131192608746zM-116.07940727288918,23.25955905091305L-118.17613031135033,34.998390755368995L-118.17613031135033,27.31448678865842z" style="fill:rgb(255,187,187); fill-opacity: 0.4"></path><path d="M-118.17612999398841,27.314486794494506L-118.17612999398841,34.998390904771355L-116.07940691635204,23.259558980986757z" style="fill:rgb(153,221,255); fill-opacity: 0.4"></path><path d="M-297.4856581679669,64.04023503995663L-268.50678168381705,67.45784988153743M-297.4856581679669,-57.11122083904956L-297.4856581679669,64.04023503995663" style="fill:none;stroke:rgb(0,0,0);stroke-width:1;stroke-linecap:round"></path><path d="M-300.1970652911691,-108.3311652461078h27.170087046978452v13.585043523489096h-27.170087046978452z" style="fill:rgb(255,255,255)"></path><path d="M-116.07940727288918,23.25955905091305L-118.17613031135033,27.31448678865842L-63.80540214112742,34.15131192608746zM-118.17613031135033,27.31448678865842L-118.17613031135033,34.998390755368995L-63.80540214112742,34.15131192608746z" style="fill:rgb(255,187,187); fill-opacity: 0.4"></path><path d="M-118.17612695706576,27.314488186157906L-63.80540365012924,34.15131130588659" style="fill:none;stroke:rgb(0,0,0);stroke-width:1;stroke-linecap:round"></path><path d="M-46.23179525328688,-77.57981912256156L-46.23179525328689,8.617813216722753L-74.52663224023782,-22.859421040047497zM-129.62308976924274,-33.45522779995635L-96.64617447646738,-97.23046471636688L-180.47595631784023,-107.11690412833853zM200.77510813973595,33.3637711309339L98.66169369486326,21.321057158838816L98.66169369486326,-46.311685006192704z" style="fill:rgb(238,238,238); fill-opacity: 0.4"></path><path d="M-297.88403120732306,66.25026625702714h27.170087046978452v13.585043523489162h-27.170087046978452z" style="fill:rgb(255,255,255)"></path><path d="M-268.5067816838171,-53.69360599746876L-268.5067816838171,67.45784988153743L-230.93288362048276,-126.35911244607199z" style="fill:rgb(238,238,238); fill-opacity: 0.4"></path><path d="M-268.50678168381705,-53.69360599746876L-268.50678168381705,67.45784988153743M48.29322795316145,-66.43203972580606L19.998390966210508,-11.711641643292001M200.77510813973598,-34.26897103409762L200.77510813973598,33.363771130933905M200.77510813973598,33.363771130933905L177.2541788869008,78.85173816108022" style="fill:none;stroke:rgb(0,0,0);stroke-width:1;stroke-linecap:round"></path><path d="M19.998390966210497,74.4859906959923L48.29322795316144,19.765592613478255L48.29322795316145,-66.43203972580606z" style="fill:rgb(238,238,238); fill-opacity: 0.4"></path><path d="M-213.45287161061555,-43.341667211927984L-213.45287161061557,60.659029559212726M-213.45287161061557,60.659029559212726L-129.62308976924274,70.54546897118436" style="fill:none;stroke:rgb(0,0,0);stroke-width:1;stroke-linecap:round"></path><path d="M-218.46277004373655,-90.11647748339773h27.170087046978196v13.585043523489162h-27.170087046978196z" style="fill:rgb(255,255,255)"></path><path d="M253.34954426632805,38.44157110619712L230.190587854371,83.22950590229863M363.05134994962515,51.379219653631786L253.34954426632805,38.44157110619712M253.34954426632805,-26.203349869661597L253.34954426632805,38.44157110619712" style="fill:none;stroke:rgb(0,0,0);stroke-width:1;stroke-linecap:round"></path><path d="M75.1407644420281,66.80902418898512L98.66169369486326,21.321057158838816L200.77510813973595,33.3637711309339zM19.998390966210497,74.4859906959923L-74.52663224023782,63.338211299236804L48.29322795316144,19.765592613478255z" style="fill:rgb(238,238,238); fill-opacity: 0.4"></path><path d="M98.66169369486325,-46.31168500619269L75.14076444202809,-0.8237179760463808M200.77510813973598,-34.26897103409762L98.66169369486325,-46.31168500619269" style="fill:none;stroke:rgb(0,0,0);stroke-width:1;stroke-linecap:round"></path><path d="M-46.23179525328689,8.617813216722753L-74.52663224023782,63.338211299236804L-74.52663224023782,-22.859421040047497zM-297.48565816796696,-57.111220839049565L-268.5067816838171,-53.69360599746876L-259.91176010463255,-129.7767272876528zM200.77510813973595,-34.26897103409762L200.77510813973595,33.3637711309339L98.66169369486326,-46.311685006192704z" style="fill:rgb(238,238,238); fill-opacity: 0.4"></path><path d="M-186.42579163859716,66.10347305733202h27.170087046978196v13.585043523489096h-27.170087046978196z" style="fill:rgb(255,255,255)"></path><path d="M-297.48565816796696,64.04023503995663L-268.5067816838171,67.45784988153743L-268.5067816838171,-53.69360599746876zM-129.62308976924274,-33.45522779995635L-129.62308976924277,70.54546897118436L-96.64617447646738,-97.23046471636688z" style="fill:rgb(238,238,238); fill-opacity: 0.4"></path><path d="M-129.62308976924274,-33.45522779995634L-129.62308976924274,70.54546897118436" style="fill:none;stroke:rgb(0,0,0);stroke-width:1;stroke-linecap:round"></path><path d="M19.9983909662105,-11.711641643292003L48.29322795316145,-66.43203972580606L-46.23179525328688,-77.57981912256156zM98.66169369486326,-46.311685006192704L98.66169369486326,21.321057158838816L75.1407644420281,-0.8237179760463832zM-213.45287161061557,-43.341667211927984L-129.62308976924274,-33.45522779995635L-180.47595631784023,-107.11690412833853z" style="fill:rgb(238,238,238); fill-opacity: 0.4"></path><path d="M-320.9381657167241,-0.4820654098311996h27.170087046978452v13.58504352348913h-27.170087046978452zM-81.87756958980236,-65.10681125786213h27.170087046978324v13.585043523489162h-27.170087046978324z" style="fill:rgb(255,255,255)"></path><path d="M363.05134994962515,51.379219653631786L253.34954426632805,38.44157110619712L253.34954426632805,-26.203349869661597z" style="fill:rgb(238,238,238); fill-opacity: 0.4"></path><path d="M-74.52663224023782,-22.8594210400475L-74.52663224023782,63.33821129923682M-74.52663224023782,63.33821129923682L19.9983909662105,74.4859906959923M363.05134994962515,51.379219653631786L339.8923935376681,96.1671544497333M363.05134994962515,-13.26570132222693L363.05134994962515,51.379219653631786M200.77510813973598,-34.26897103409762L177.2541788869008,11.218995996048704" style="fill:none;stroke:rgb(0,0,0);stroke-width:1;stroke-linecap:round"></path><path d="M-213.45287161061557,60.659029559212726L-129.62308976924277,70.54546897118436L-129.62308976924274,-33.45522779995635zM-297.48565816796696,-57.111220839049565L-297.48565816796696,64.04023503995663L-268.5067816838171,-53.69360599746876zM177.2541788869008,78.85173816108022L200.77510813973595,33.3637711309339L200.77510813973595,-34.26897103409762z" style="fill:rgb(238,238,238); fill-opacity: 0.4"></path><path d="M-236.90537875124906,4.712108028703149h27.170087046978196v13.58504352348913h-27.170087046978196z" style="fill:rgb(255,255,255)"></path><path d="M84.94228355088487,10.928205631799795L84.94228355088487,16.173286172005312M187.0556979957576,28.216000144100402L84.94228355088487,16.173286172005312M84.94228355088487,16.173286172005312L83.51104739087063,18.9412050139547" style="fill:none;stroke:rgb(0,0,0);stroke-width:1;stroke-linecap:round"></path><path d="M71.29300468761716,9.504989547964568h27.170087046978196v13.58504352348913h-27.170087046978196zM-42.15193178656281,69.4133245694202h27.17008704697826v13.585043523489096h-27.17008704697826z" style="fill:rgb(255,255,255)"></path><path d="M98.66169369486326,21.321057158838816L75.1407644420281,66.80902418898512L75.1407644420281,-0.8237179760463832z" style="fill:rgb(238,238,238); fill-opacity: 0.4"></path><path d="M187.0556979957576,22.97091960389488L84.94228355088487,10.928205631799795M84.94228355088487,10.928205631799795L83.51104739087063,13.696124473749181" style="fill:none;stroke:rgb(0,0,0);stroke-width:1;stroke-linecap:round"></path><path d="M84.94228355088488,10.928205631799793L84.94228355088488,16.173286172005316L83.51104739087064,13.696124473749178z" style="fill:rgb(153,221,255); fill-opacity: 0.4"></path><path d="M253.34954426632805,-26.203349869661597L230.190587854371,18.584584926439916M363.05134994962515,-13.26570132222693L253.34954426632805,-26.203349869661597" style="fill:none;stroke:rgb(0,0,0);stroke-width:1;stroke-linecap:round"></path><path d="M84.94228355088488,16.173286172005316L83.51104739087064,18.9412050139547L83.51104739087064,13.696124473749178z" style="fill:rgb(153,221,255); fill-opacity: 0.4"></path><path d="M230.19058785437096,83.22950590229863L253.34954426632805,38.44157110619712L363.05134994962515,51.379219653631786zM177.2541788869008,78.85173816108022L75.1407644420281,66.80902418898512L200.77510813973595,33.3637711309339z" style="fill:rgb(238,238,238); fill-opacity: 0.4"></path><path d="M83.51104739087063,18.9412050139547L185.62446183574338,30.98391898604979M83.51104739087063,13.696124473749181L83.51104739087063,18.9412050139547M415.6151350732486,56.263524835878904L392.8394564463782,100.31022500370538M525.3169407565457,69.20117338331359L415.6151350732486,56.263524835878904M415.61513507324867,-4.965382624020434L415.6151350732486,56.263524835878904" style="fill:none;stroke:rgb(0,0,0);stroke-width:1;stroke-linecap:round"></path><path d="M-213.45287161061557,-43.341667211927984L-213.45287161061557,60.659029559212726L-129.62308976924274,-33.45522779995635zM19.9983909662105,-11.711641643292003L19.998390966210497,74.4859906959923L48.29322795316145,-66.43203972580606z" style="fill:rgb(238,238,238); fill-opacity: 0.4"></path><path d="M83.51104739087063,13.696124473749181L185.62446183574338,25.73883844584427" style="fill:none;stroke:rgb(0,0,0);stroke-width:1;stroke-linecap:round"></path><path d="M363.05134994962515,-13.26570132222692L363.05134994962515,51.379219653631786L253.34954426632805,-26.203349869661597z" style="fill:rgb(238,238,238); fill-opacity: 0.4"></path><path d="M187.05569799575758,28.2160001441004L84.94228355088488,16.173286172005316L84.94228355088488,10.928205631799793zM83.51104739087064,18.9412050139547L84.94228355088488,16.173286172005316L187.05569799575758,28.2160001441004z" style="fill:rgb(153,221,255); fill-opacity: 0.4"></path><path d="M-74.52663224023782,-22.859421040047497L19.9983909662105,-11.711641643292003L-46.23179525328688,-77.57981912256156z" style="fill:rgb(238,238,238); fill-opacity: 0.4"></path><path d="M19.998390966210508,-11.711641643292001L19.9983909662105,74.4859906959923" style="fill:none;stroke:rgb(0,0,0);stroke-width:1;stroke-linecap:round"></path><path d="M69.92600298458363,2.3647258990078495h27.170087046978324v13.58504352348913h-27.170087046978324z" style="fill:rgb(255,255,255)"></path><path d="M177.2541788869008,11.218995996048701L200.77510813973595,-34.26897103409762L98.66169369486326,-46.311685006192704z" style="fill:rgb(238,238,238); fill-opacity: 0.4"></path><path d="M83.51104739087064,13.696124473749178L185.62446183574335,25.738838445844266L84.94228355088488,10.928205631799793zM83.51104739087064,13.696124473749178L83.51104739087064,18.9412050139547L185.62446183574335,25.738838445844266z" style="fill:rgb(153,221,255); fill-opacity: 0.4"></path><path d="M-297.4856581679669,-57.11122083904956L-268.50678168381705,-53.69360599746876" style="fill:none;stroke:rgb(0,0,0);stroke-width:1;stroke-linecap:round"></path><path d="M65.40287175626999,-38.45489345888976h27.170087046978324v13.58504352348913h-27.170087046978324z" style="fill:rgb(255,255,255)"></path><path d="M187.05569799575758,22.970919603894878L187.05569799575758,28.2160001441004L84.94228355088488,10.928205631799793z" style="fill:rgb(153,221,255); fill-opacity: 0.4"></path><path d="M75.14076444202809,-0.8237179760463808L75.14076444202809,66.80902418898512M75.14076444202809,66.80902418898512L177.2541788869008,78.85173816108022" style="fill:none;stroke:rgb(0,0,0);stroke-width:1;stroke-linecap:round"></path><path d="M-97.9791393452837,16.292822401034464h27.170087046978196v13.58504352348913h-27.170087046978196z" style="fill:rgb(255,255,255)"></path><path d="M185.62446183574335,30.983918986049783L83.51104739087064,18.9412050139547L187.05569799575758,28.2160001441004z" style="fill:rgb(153,221,255); fill-opacity: 0.4"></path><path d="M-74.52663224023782,63.338211299236804L19.998390966210497,74.4859906959923L19.9983909662105,-11.711641643292003z" style="fill:rgb(238,238,238); fill-opacity: 0.4"></path><path d="M185.62446183574335,25.738838445844266L187.05569799575758,22.970919603894878L84.94228355088488,10.928205631799793z" style="fill:rgb(153,221,255); fill-opacity: 0.4"></path><path d="M-213.45287161061555,-43.341667211927984L-129.62308976924274,-33.45522779995634" style="fill:none;stroke:rgb(0,0,0);stroke-width:1;stroke-linecap:round"></path><path d="M253.34954426632805,-26.203349869661597L253.34954426632805,38.44157110619712L230.19058785437096,18.58458492643992z" style="fill:rgb(238,238,238); fill-opacity: 0.4"></path><path d="M83.51104739087064,18.9412050139547L185.62446183574335,30.983918986049783L185.62446183574335,25.738838445844266z" style="fill:rgb(153,221,255); fill-opacity: 0.4"></path><path d="M187.0556979957576,22.97091960389488L187.0556979957576,28.216000144100402M187.0556979957576,28.216000144100402L185.62446183574338,30.98391898604979M187.05570170436337,28.216000660053712L185.6244656996511,30.983919201659077M187.05570170436337,22.970920262132765L187.05570170436337,28.216000660053712M187.05570170436337,28.216000660053712L239.13666274482455,32.99553921974376" style="fill:none;stroke:rgb(0,0,0);stroke-width:1;stroke-linecap:round"></path><path d="M185.62446183574335,30.983918986049783L187.05569799575758,28.2160001441004L187.05569799575758,22.970919603894878z" style="fill:rgb(153,221,255); fill-opacity: 0.4"></path><path d="M187.05569887855546,22.970919781863444L187.05569887855546,28.216000227375517L185.62446274438042,30.983919019353543z" style="fill:rgb(255,187,187); fill-opacity: 0.4"></path><path d="M525.3169407565457,69.20117338331359L415.61513507324867,56.263524835878904L415.61513507324867,-4.965382624020432z" style="fill:rgb(238,238,238); fill-opacity: 0.4"></path><path d="M187.0556979957576,22.97091960389488L185.62446183574338,25.73883844584427M187.05570170436337,22.970920262132765L185.6244656996511,25.738838803738133M187.05570170436337,22.970920262132765L239.13666274482455,32.99553921974376M578.0838642635183,185.53085551047488L573.5688169439235,194.26266714111097M596.3674993825927,187.6871303672718L578.0838642635183,185.53085551047488M578.0838642635183,-58.44286412722777L578.0838642635183,185.53085551047488" style="fill:none;stroke:rgb(0,0,0);stroke-width:1;stroke-linecap:round"></path><path d="M-74.52663224023782,-22.859421040047497L-74.52663224023782,63.338211299236804L19.9983909662105,-11.711641643292003z" style="fill:rgb(238,238,238); fill-opacity: 0.4"></path><path d="M185.62446183574338,25.73883844584427L185.62446183574338,30.98391898604979M185.6244656996511,30.983919201659077L185.6244656996511,25.738838803738133M185.6244656996511,30.983919201659077L239.13666274482455,32.99553921974376" style="fill:none;stroke:rgb(0,0,0);stroke-width:1;stroke-linecap:round"></path><path d="M185.62446183574335,25.738838445844266L185.62446183574335,30.983918986049783L187.05569799575758,22.970919603894878z" style="fill:rgb(153,221,255); fill-opacity: 0.4"></path><path d="M187.05569887855546,22.970919781863444L185.62446274438042,30.983919019353543L185.62446274438042,25.738838573841477z" style="fill:rgb(255,187,187); fill-opacity: 0.4"></path><path d="M363.05134994962515,-13.26570132222693L339.8923935376681,31.52223347387459" style="fill:none;stroke:rgb(0,0,0);stroke-width:1;stroke-linecap:round"></path><path d="M187.05569887855546,28.216000227375517L187.05569887855546,22.970919781863444L239.1366600203128,32.99553864986774zM185.62446274438042,30.983919019353543L187.05569887855546,28.216000227375517L239.1366600203128,32.99553864986774z" style="fill:rgb(255,187,187); fill-opacity: 0.4"></path><path d="M525.3169407565457,69.20117338331359L502.54126212967543,113.24787355114006M525.3169407565457,7.972265923414235L525.3169407565457,69.20117338331359M596.3674993825927,-56.28658927043084L596.3674993825927,187.6871303672718M596.3674993825927,187.6871303672718L591.8524520629978,196.4189419979079M185.6244656996511,25.738838803738133L239.13666274482455,32.99553921974376" style="fill:none;stroke:rgb(0,0,0);stroke-width:1;stroke-linecap:round"></path><path d="M111.30966130029856,73.33160384590816h27.170087046978196v13.585043523489162h-27.170087046978196z" style="fill:rgb(255,255,255)"></path><path d="M187.05569887855546,22.970919781863444L185.62446274438042,25.738838573841477L239.1366600203128,32.99553864986774zM185.62446274438042,25.738838573841477L185.62446274438042,30.983919019353543L239.1366600203128,32.99553864986774z" style="fill:rgb(255,187,187); fill-opacity: 0.4"></path><path d="M339.8923935376681,96.16715444973332L363.05134994962515,51.379219653631786L363.05134994962515,-13.26570132222692zM573.5688169439235,194.26266714111097L578.0838642635183,185.53085551047488L596.3674993825927,187.6871303672718z" style="fill:rgb(238,238,238); fill-opacity: 0.4"></path><path d="M667.406553737887,211.5049376483045L649.1229186188126,209.34866279150756M649.1229186188126,-65.50473356993112L649.1229186188126,209.34866279150756M649.1229186188126,209.34866279150756L644.6078712992179,218.08047442214365" style="fill:none;stroke:rgb(0,0,0);stroke-width:1;stroke-linecap:round"></path><path d="M75.1407644420281,-0.8237179760463832L177.2541788869008,11.218995996048701L98.66169369486326,-46.311685006192704zM253.34954426632805,38.44157110619712L230.19058785437096,83.22950590229863L230.19058785437096,18.58458492643992z" style="fill:rgb(238,238,238); fill-opacity: 0.4"></path><path d="M-74.52663224023782,-22.8594210400475L19.998390966210508,-11.711641643292001" style="fill:none;stroke:rgb(0,0,0);stroke-width:1;stroke-linecap:round"></path><path d="M177.2541788869008,11.218995996048701L177.2541788869008,78.85173816108022L200.77510813973595,-34.26897103409762z" style="fill:rgb(238,238,238); fill-opacity: 0.4"></path><path d="M667.406553737887,-63.348458713134185L667.406553737887,211.5049376483045M667.406553737887,211.5049376483045L662.8915064182922,220.2367492789406" style="fill:none;stroke:rgb(0,0,0);stroke-width:1;stroke-linecap:round"></path><path d="M561.5156508389623,194.18974266080798h27.170087046977937v13.585043523489162h-27.170087046977937z" style="fill:rgb(255,255,255)"></path><path d="M525.3169407565457,7.972265923414235L415.61513507324867,-4.965382624020434M415.61513507324867,-4.965382624020434L392.8394564463782,39.08131754380604" style="fill:none;stroke:rgb(0,0,0);stroke-width:1;stroke-linecap:round"></path><path d="M591.8524520629978,196.4189419979079L573.5688169439235,194.26266714111097L596.3674993825927,187.6871303672718zM644.6078712992179,218.08047442214362L649.1229186188126,209.34866279150754L667.406553737887,211.5049376483045z" style="fill:rgb(238,238,238); fill-opacity: 0.4"></path><path d="M177.2541788869008,11.218995996048704L177.2541788869008,78.85173816108022" style="fill:none;stroke:rgb(0,0,0);stroke-width:1;stroke-linecap:round"></path><path d="M339.8923935376681,96.16715444973332L230.19058785437096,83.22950590229863L363.05134994962515,51.379219653631786zM392.8394564463782,100.31022500370538L415.61513507324867,56.263524835878904L525.3169407565457,69.20117338331359z" style="fill:rgb(238,238,238); fill-opacity: 0.4"></path><path d="M51.68825665322966,29.04607868576644h27.170087046978324v13.58504352348913h-27.170087046978324z" style="fill:rgb(255,255,255)"></path><path d="M573.5688169439235,-49.71105249659168L573.5688169439235,194.26266714111097M573.5688169439235,194.26266714111097L591.8524520629978,196.4189419979079" style="fill:none;stroke:rgb(0,0,0);stroke-width:1;stroke-linecap:round"></path><path d="M525.3169407565457,7.972265923414243L525.3169407565457,69.20117338331359L415.61513507324867,-4.965382624020432z" style="fill:rgb(238,238,238); fill-opacity: 0.4"></path><path d="M632.5547051942566,218.00754705265652h27.170087046977937v13.585043523489162h-27.170087046977937z" style="fill:rgb(255,255,255)"></path><path d="M75.1407644420281,66.80902418898512L177.2541788869008,78.85173816108022L177.2541788869008,11.218995996048701z" style="fill:rgb(238,238,238); fill-opacity: 0.4"></path><path d="M591.8524520629978,-47.554777639794736L591.8524520629978,196.4189419979079" style="fill:none;stroke:rgb(0,0,0);stroke-width:1;stroke-linecap:round"></path><path d="M662.8915064182922,220.2367492789406L644.6078712992179,218.08047442214362L667.406553737887,211.5049376483045zM339.8923935376681,31.522233473874596L363.05134994962515,-13.26570132222692L253.34954426632805,-26.203349869661597z" style="fill:rgb(238,238,238); fill-opacity: 0.4"></path><path d="M220.27170727903805,-18.696576117602515h27.170087046978452v13.58504352348913h-27.170087046978452z" style="fill:rgb(255,255,255)"></path><path d="M644.6078712992179,218.08047442214365L662.8915064182922,220.2367492789406M644.6078712992179,-56.772921939295024L644.6078712992179,218.08047442214365M238.02214248610593,20.683349380086597L236.5909063260917,23.45126822203598M238.02214248610593,15.43826883988108L238.02214248610593,20.683349380086597M347.7239481694031,33.62099792752127L238.02214248610593,20.683349380086597" style="fill:none;stroke:rgb(0,0,0);stroke-width:1;stroke-linecap:round"></path><path d="M75.1407644420281,-0.8237179760463832L75.1407644420281,66.80902418898512L177.2541788869008,11.218995996048701z" style="fill:rgb(238,238,238); fill-opacity: 0.4"></path><path d="M224.3728621537024,14.015052582783786h27.170087046978452v13.58504352348913h-27.170087046978452z" style="fill:rgb(255,255,255)"></path><path d="M230.190587854371,18.584584926439916L230.190587854371,83.22950590229863M230.190587854371,83.22950590229863L339.8923935376681,96.1671544497333M238.02214248610593,15.43826883988108L236.5909063260917,18.206187681830464M347.7239481694031,28.375917387315756L238.02214248610593,15.43826883988108" style="fill:none;stroke:rgb(0,0,0);stroke-width:1;stroke-linecap:round"></path><path d="M238.022142486106,15.438268839881076L238.022142486106,20.683349380086597L236.5909063260917,18.206187681830464z" style="fill:rgb(153,221,255); fill-opacity: 0.4"></path><path d="M662.8915064182922,-54.61664708249809L662.8915064182922,220.2367492789406" style="fill:none;stroke:rgb(0,0,0);stroke-width:1;stroke-linecap:round"></path><path d="M238.022142486106,20.683349380086597L236.5909063260917,23.451268222035985L236.5909063260917,18.206187681830464z" style="fill:rgb(153,221,255); fill-opacity: 0.4"></path><path d="M236.5909063260917,18.206187681830464L236.5909063260917,23.45126822203598M236.5909063260917,23.45126822203598L346.2927120093889,36.388916769470654M75.14076444202809,-0.8237179760463808L177.2541788869008,11.218995996048704" style="fill:none;stroke:rgb(0,0,0);stroke-width:1;stroke-linecap:round"></path><path d="M415.61513507324867,-4.965382624020432L415.61513507324867,56.263524835878904L392.8394564463782,39.081317543806044z" style="fill:rgb(238,238,238); fill-opacity: 0.4"></path><path d="M236.5909063260917,18.206187681830464L346.2927120093889,31.143836229265144" style="fill:none;stroke:rgb(0,0,0);stroke-width:1;stroke-linecap:round"></path><path d="M347.7239481694031,33.62099792752127L238.022142486106,20.683349380086597L238.022142486106,15.438268839881076zM236.5909063260917,23.451268222035985L238.022142486106,20.683349380086597L347.7239481694031,33.62099792752127z" style="fill:rgb(153,221,255); fill-opacity: 0.4"></path><path d="M223.00586045066893,6.874788933827064h27.170087046978452v13.58504352348913h-27.170087046978452z" style="fill:rgb(255,255,255)"></path><path d="M525.3169407565457,7.972265923414235L502.54126212967543,52.01896609124071" style="fill:none;stroke:rgb(0,0,0);stroke-width:1;stroke-linecap:round"></path><path d="M236.5909063260917,18.206187681830464L346.2927120093888,31.143836229265137L238.022142486106,15.438268839881076zM236.5909063260917,18.206187681830464L236.5909063260917,23.451268222035985L346.2927120093888,31.143836229265137z" style="fill:rgb(153,221,255); fill-opacity: 0.4"></path><path d="M270.1536803698854,90.19955427829959h27.170087046978452v13.585043523489096h-27.170087046978452z" style="fill:rgb(255,255,255)"></path><path d="M230.19058785437096,18.58458492643992L339.8923935376681,31.522233473874596L253.34954426632805,-26.203349869661597z" style="fill:rgb(238,238,238); fill-opacity: 0.4"></path><path d="M347.7239481694031,28.375917387315756L347.7239481694031,33.62099792752127L238.022142486106,15.438268839881076z" style="fill:rgb(153,221,255); fill-opacity: 0.4"></path><path d="M502.54126212967543,113.24787355114006L525.3169407565457,69.20117338331359L525.3169407565457,7.972265923414243z" style="fill:rgb(238,238,238); fill-opacity: 0.4"></path><path d="M346.2927120093888,36.388916769470654L236.5909063260917,23.451268222035985L347.7239481694031,33.62099792752127zM346.2927120093888,31.143836229265137L347.7239481694031,28.375917387315756L238.022142486106,15.438268839881076z" style="fill:rgb(153,221,255); fill-opacity: 0.4"></path><path d="M415.61513507324867,56.263524835878904L392.8394564463782,100.31022500370538L392.8394564463782,39.081317543806044zM339.8923935376681,31.522233473874596L339.8923935376681,96.16715444973332L363.05134994962515,-13.26570132222692z" style="fill:rgb(238,238,238); fill-opacity: 0.4"></path><path d="M236.5909063260917,23.451268222035985L346.2927120093888,36.388916769470654L346.2927120093888,31.143836229265137z" style="fill:rgb(153,221,255); fill-opacity: 0.4"></path><path d="M596.3674993825927,187.6871303672718L578.0838642635183,185.53085551047488L578.0838642635183,-58.44286412722778z" style="fill:rgb(238,238,238); fill-opacity: 0.4"></path><path d="M347.7239481694031,28.375917387315756L347.7239481694031,33.62099792752127M347.7239481694031,33.62099792752127L346.2927120093889,36.388916769470654M347.72394856455037,33.62099806301036L399.83762070174066,33.30768881749201M347.72394856455037,33.62099806301036L346.29271240453613,36.38891690495974M347.72394856455037,28.375918661081414L347.72394856455037,33.62099806301036" style="fill:none;stroke:rgb(0,0,0);stroke-width:1;stroke-linecap:round"></path><path d="M206.7380786344688,46.96047074685299h27.170087046978196v13.58504352348913h-27.170087046978196z" style="fill:rgb(255,255,255)"></path><path d="M339.8923935376681,31.52223347387459L339.8923935376681,96.1671544497333" style="fill:none;stroke:rgb(0,0,0);stroke-width:1;stroke-linecap:round"></path><path d="M502.54126212967543,113.24787355114006L392.8394564463782,100.31022500370538L525.3169407565457,69.20117338331359z" style="fill:rgb(238,238,238); fill-opacity: 0.4"></path><path d="M346.2927120093888,36.388916769470654L347.7239481694031,33.62099792752127L347.7239481694031,28.375917387315756z" style="fill:rgb(153,221,255); fill-opacity: 0.4"></path><path d="M347.7239505213367,28.375917738546384L347.7239505213367,33.62099818405845L346.29271438716165,36.388916976036484z" style="fill:rgb(255,187,187); fill-opacity: 0.4"></path><path d="M347.72394856455037,28.375918661081414L346.29271240453613,31.1438375030308M347.72394856455037,28.375918661081414L399.83762070174066,33.30768881749201M347.7239481694031,28.375917387315756L346.2927120093889,31.143836229265144M346.2927120093889,31.143836229265144L346.2927120093889,36.388916769470654M346.29271240453613,36.38891690495974L399.83762070174066,33.30768881749201M346.29271240453613,36.38891690495974L346.29271240453613,31.1438375030308" style="fill:none;stroke:rgb(0,0,0);stroke-width:1;stroke-linecap:round"></path><path d="M346.2927120093888,31.143836229265137L346.2927120093888,36.388916769470654L347.7239481694031,28.375917387315756z" style="fill:rgb(153,221,255); fill-opacity: 0.4"></path><path d="M347.7239505213367,28.375917738546384L346.29271438716165,36.388916976036484L346.29271438716165,31.143836530524414z" style="fill:rgb(255,187,187); fill-opacity: 0.4"></path><path d="M230.19058785437096,83.22950590229863L339.8923935376681,96.16715444973332L339.8923935376681,31.522233473874596zM591.8524520629978,196.4189419979079L596.3674993825927,187.6871303672718L596.3674993825927,-56.28658927043084z" style="fill:rgb(238,238,238); fill-opacity: 0.4"></path><path d="M347.7239505213367,33.62099818405845L347.7239505213367,28.375917738546384L399.8376227143153,33.30768965312915zM346.29271438716165,36.388916976036484L347.7239505213367,33.62099818405845L399.8376227143153,33.30768965312915z" style="fill:rgb(255,187,187); fill-opacity: 0.4"></path><path d="M578.0838642635183,185.53085551047488L573.5688169439235,194.26266714111097L573.5688169439235,-49.71105249659169z" style="fill:rgb(238,238,238); fill-opacity: 0.4"></path><path d="M346.29271240453613,31.1438375030308L399.83762070174066,33.30768881749201" style="fill:none;stroke:rgb(0,0,0);stroke-width:1;stroke-linecap:round"></path><path d="M382.72893697850196,2.1707750685250797h27.170087046978452v13.58504352348913h-27.170087046978452z" style="fill:rgb(255,255,255)"></path><path d="M502.54126212967543,52.01896609124071L525.3169407565457,7.972265923414243L415.61513507324867,-4.965382624020432z" style="fill:rgb(238,238,238); fill-opacity: 0.4"></path><path d="M347.7239505213367,28.375917738546384L346.29271438716165,31.143836530524414L399.8376227143153,33.30768965312915z" style="fill:rgb(255,187,187); fill-opacity: 0.4"></path><path d="M230.19058785437096,18.58458492643992L230.19058785437096,83.22950590229863L339.8923935376681,31.522233473874596z" style="fill:rgb(238,238,238); fill-opacity: 0.4"></path><path d="M346.29271438716165,31.143836530524414L346.29271438716165,36.388916976036484L399.8376227143153,33.30768965312915z" style="fill:rgb(255,187,187); fill-opacity: 0.4"></path><path d="M667.406553737887,211.5049376483045L649.1229186188126,209.34866279150754L649.1229186188126,-65.50473356993112z" style="fill:rgb(238,238,238); fill-opacity: 0.4"></path><path d="M230.190587854371,18.584584926439916L339.8923935376681,31.52223347387459M392.8394564463782,100.31022500370538L502.54126212967543,113.24787355114006M392.8394564463782,39.08131754380604L392.8394564463782,100.31022500370538" style="fill:none;stroke:rgb(0,0,0);stroke-width:1;stroke-linecap:round"></path><path d="M573.5688169439235,194.26266714111097L591.8524520629978,196.4189419979079L591.8524520629978,-47.55477763979475z" style="fill:rgb(238,238,238); fill-opacity: 0.4"></path><path d="M525.7086923067037,61.99929214502594L555.6034299023646,65.52491878372521" style="fill:none;stroke:rgb(0,0,0);stroke-width:1;stroke-linecap:round"></path><path d="M662.8915064182922,220.2367492789406L667.406553737887,211.5049376483045L667.406553737887,-63.348458713134185zM649.1229186188126,209.34866279150754L644.6078712992179,218.08047442214362L644.6078712992179,-56.77292193929504z" style="fill:rgb(238,238,238); fill-opacity: 0.4"></path><path d="M554.054673234806,70.36428107602524L555.6034299023646,71.49276624412327L573.188569664518,67.59881680648948z" style="fill:rgb(0,0,0)"></path><path d="M738.4456080931812,129.14892338151753L720.1619729741068,126.99264852472058M720.1619729741068,126.99264852472058L715.6469256545121,135.7244601553567M720.1619729741068,33.60721853518519L720.1619729741068,126.99264852472058" style="fill:none;stroke:rgb(0,0,0);stroke-width:1;stroke-linecap:round"></path><path d="M556.5606141258253,58.84569588661562L554.6462456789038,62.54796155227253L573.188569664518,67.59881680648948zM554.6462456789038,62.54796155227253L554.054673234806,70.36428107602524L573.188569664518,67.59881680648948z" style="fill:rgb(0,0,0)"></path><path d="M432.80254876357844,107.28027250860939h27.170087046978452v13.585043523489162h-27.170087046978452z" style="fill:rgb(255,255,255)"></path><path d="M392.8394564463782,39.081317543806044L502.54126212967543,52.01896609124071L415.61513507324867,-4.965382624020432zM644.6078712992179,218.08047442214362L662.8915064182922,220.2367492789406L662.8915064182922,-54.61664708249809z" style="fill:rgb(238,238,238); fill-opacity: 0.4"></path><path d="M738.4456080931812,129.14892338151753L733.9305607735864,137.88073501215362M738.4456080931812,35.76349339198213L738.4456080931812,129.14892338151753" style="fill:none;stroke:rgb(0,0,0);stroke-width:1;stroke-linecap:round"></path><path d="M715.6469256545122,135.7244601553567L720.1619729741069,126.99264852472058L738.4456080931812,129.14892338151753z" style="fill:rgb(238,238,238); fill-opacity: 0.4"></path><path d="M596.747746661998,70.37726106419062L626.6424842576589,73.90288770288988" style="fill:none;stroke:rgb(0,0,0);stroke-width:1;stroke-linecap:round"></path><path d="M502.54126212967543,52.01896609124071L502.54126212967543,113.24787355114006L525.3169407565457,7.972265923414243z" style="fill:rgb(238,238,238); fill-opacity: 0.4"></path><path d="M369.38694702816167,65.74919698976643h27.170087046978452v13.585043523489162h-27.170087046978452zM703.5937595495509,135.65153336094895h27.170087046977937v13.585043523489162h-27.170087046977937z" style="fill:rgb(255,255,255)"></path><path d="M502.54126212967543,52.01896609124071L502.54126212967543,113.24787355114006" style="fill:none;stroke:rgb(0,0,0);stroke-width:1;stroke-linecap:round"></path><path d="M733.9305607735864,137.88073501215365L715.6469256545122,135.7244601553567L738.4456080931812,129.14892338151753z" style="fill:rgb(238,238,238); fill-opacity: 0.4"></path><path d="M625.0937275901005,78.74224999518991L626.642484257659,79.87073516328796L644.2276240198124,75.97678572565415z" style="fill:rgb(0,0,0)"></path><path d="M715.6469256545121,135.7244601553567L733.9305607735864,137.88073501215362M715.6469256545121,42.33903016582129L715.6469256545121,135.7244601553567" style="fill:none;stroke:rgb(0,0,0);stroke-width:1;stroke-linecap:round"></path><path d="M392.8394564463782,100.31022500370538L502.54126212967543,113.24787355114006L502.54126212967543,52.01896609124071z" style="fill:rgb(238,238,238); fill-opacity: 0.4"></path><path d="M627.5996684811197,67.2236648057803L625.6853000341982,70.92593047143721L644.2276240198124,75.97678572565415z" style="fill:rgb(0,0,0)"></path><path d="M738.4456080931812,129.14892338151753L720.1619729741069,126.99264852472058L720.1619729741069,33.6072185351852z" style="fill:rgb(238,238,238); fill-opacity: 0.4"></path><path d="M625.6853000341982,70.92593047143721L625.0937275901005,78.74224999518991L644.2276240198124,75.97678572565415z" style="fill:rgb(0,0,0)"></path><path d="M596.3674993825927,-56.28658927043084L596.3674993825927,187.6871303672718L578.0838642635183,-58.44286412722778zM392.8394564463782,39.081317543806044L392.8394564463782,100.31022500370538L502.54126212967543,52.01896609124071z" style="fill:rgb(238,238,238); fill-opacity: 0.4"></path><path d="M733.9305607735864,44.49530502261823L733.9305607735864,137.88073501215362" style="fill:none;stroke:rgb(0,0,0);stroke-width:1;stroke-linecap:round"></path><path d="M578.0838642635183,-58.44286412722778L578.0838642635183,185.53085551047488L573.5688169439235,-49.71105249659169z" style="fill:rgb(238,238,238); fill-opacity: 0.4"></path><path d="M392.8394564463782,39.08131754380604L502.54126212967543,52.01896609124071M667.7868010172923,78.75522998335529L697.6815386129532,82.28085662205456M791.2010273294013,116.16085489164L786.6859800098066,124.8926665222761M809.4846624484757,118.31712974843694L791.2010273294013,116.16085489164M791.2010273294013,61.194950006595136L791.2010273294013,116.16085489164" style="fill:none;stroke:rgb(0,0,0);stroke-width:1;stroke-linecap:round"></path><path d="M733.9305607735864,137.88073501215365L738.4456080931812,129.14892338151753L738.4456080931812,35.76349339198214zM720.1619729741069,126.99264852472058L715.6469256545122,135.7244601553567L715.6469256545122,42.3390301658213z" style="fill:rgb(238,238,238); fill-opacity: 0.4"></path><path d="M809.4846624484757,63.35122486339209L809.4846624484757,118.31712974843694M809.4846624484757,118.31712974843694L804.969615128881,127.04894137907306" style="fill:none;stroke:rgb(0,0,0);stroke-width:1;stroke-linecap:round"></path><path d="M696.1327819453946,87.12021891435458L697.6815386129532,88.24870408245262L715.2666783751066,84.35475464481883z" style="fill:rgb(0,0,0)"></path><path d="M591.8524520629978,-47.55477763979475L591.8524520629978,196.4189419979079L596.3674993825927,-56.28658927043084z" style="fill:rgb(238,238,238); fill-opacity: 0.4"></path><path d="M698.6387228364139,75.60163372494496L696.7243543894924,79.30389939060187L715.2666783751066,84.35475464481883z" style="fill:rgb(0,0,0)"></path><path d="M786.6859800098066,124.8926665222761L791.2010273294013,116.16085489163999L809.4846624484757,118.31712974843694z" style="fill:rgb(238,238,238); fill-opacity: 0.4"></path><path d="M696.7243543894924,79.30389939060187L696.1327819453946,87.12021891435458L715.2666783751066,84.35475464481883z" style="fill:rgb(0,0,0)"></path><path d="M573.5688169439235,-49.71105249659169L573.5688169439235,194.26266714111097L591.8524520629978,-47.55477763979475zM715.6469256545122,135.7244601553567L733.9305607735864,137.88073501215365L733.9305607735864,44.49530502261824zM738.4456080931812,35.76349339198214L738.4456080931812,129.14892338151753L720.1619729741069,33.6072185351852zM809.4846624484757,118.31712974843694L791.2010273294013,116.16085489163999L791.2010273294013,61.194950006595136z" style="fill:rgb(238,238,238); fill-opacity: 0.4"></path><path d="M774.6328139048453,124.81974236333718h27.170087046977937v13.585043523489162h-27.170087046977937z" style="fill:rgb(255,255,255)"></path><path d="M667.406553737887,-63.348458713134185L667.406553737887,211.5049376483045L649.1229186188126,-65.50473356993112z" style="fill:rgb(238,238,238); fill-opacity: 0.4"></path><path d="M738.8258553725866,87.13319890251998L768.7205929682476,90.65882554121924" style="fill:none;stroke:rgb(0,0,0);stroke-width:1;stroke-linecap:round"></path><path d="M720.1619729741069,33.6072185351852L720.1619729741069,126.99264852472058L715.6469256545122,42.3390301658213zM804.969615128881,127.04894137907304L786.6859800098066,124.8926665222761L809.4846624484757,118.31712974843694zM649.1229186188126,-65.50473356993112L649.1229186188126,209.34866279150754L644.6078712992179,-56.77292193929504z" style="fill:rgb(238,238,238); fill-opacity: 0.4"></path><path d="M786.6859800098066,69.92676163723125L786.6859800098066,124.8926665222761M786.6859800098066,124.8926665222761L804.969615128881,127.04894137907306" style="fill:none;stroke:rgb(0,0,0);stroke-width:1;stroke-linecap:round"></path><path d="M804.969615128881,127.04894137907304L809.4846624484757,118.31712974843694L809.4846624484757,63.351224863392076z" style="fill:rgb(238,238,238); fill-opacity: 0.4"></path><path d="M804.969615128881,72.08303649402819L804.969615128881,127.04894137907306" style="fill:none;stroke:rgb(0,0,0);stroke-width:1;stroke-linecap:round"></path><path d="M767.171836300689,95.49818783351927L768.7205929682476,96.62667300161732L786.3057327304011,92.73272356398351z" style="fill:rgb(0,0,0)"></path><path d="M791.2010273294013,116.16085489163999L786.6859800098066,124.8926665222761L786.6859800098066,69.92676163723125z" style="fill:rgb(238,238,238); fill-opacity: 0.4"></path><path d="M769.6777771917083,83.97960264410966L767.7634087447868,87.68186830976657L786.3057327304011,92.73272356398351z" style="fill:rgb(0,0,0)"></path><path d="M809.4846624484757,63.351224863392076L809.4846624484757,118.31712974843694L791.2010273294013,61.194950006595136zM733.9305607735864,44.49530502261824L733.9305607735864,137.88073501215365L738.4456080931812,35.76349339198214z" style="fill:rgb(238,238,238); fill-opacity: 0.4"></path><path d="M767.7634087447868,87.68186830976657L767.171836300689,95.49818783351927L786.3057327304011,92.73272356398351z" style="fill:rgb(0,0,0)"></path><path d="M662.8915064182922,-54.61664708249809L662.8915064182922,220.2367492789406L667.406553737887,-63.348458713134185z" style="fill:rgb(238,238,238); fill-opacity: 0.4"></path><path d="M720.1619729741068,33.60721853518519L715.6469256545121,42.33903016582129M738.4456080931812,35.76349339198213L720.1619729741068,33.60721853518519" style="fill:none;stroke:rgb(0,0,0);stroke-width:1;stroke-linecap:round"></path><path d="M791.2010273294013,61.194950006595136L791.2010273294013,116.16085489163999L786.6859800098066,69.92676163723125zM715.6469256545122,42.3390301658213L715.6469256545122,135.7244601553567L733.9305607735864,44.49530502261824zM644.6078712992179,-56.77292193929504L644.6078712992179,218.08047442214362L662.8915064182922,-54.61664708249809z" style="fill:rgb(238,238,238); fill-opacity: 0.4"></path><path d="M809.8649097278811,95.51116782168467L839.759647323542,99.03679446038393" style="fill:none;stroke:rgb(0,0,0);stroke-width:1;stroke-linecap:round"></path><path d="M786.6859800098066,124.8926665222761L804.969615128881,127.04894137907304L804.969615128881,72.08303649402818z" style="fill:rgb(238,238,238); fill-opacity: 0.4"></path><path d="M738.4456080931812,35.76349339198213L733.9305607735864,44.49530502261823M880.5237168037701,100.40571571715883L862.2400816846957,98.24944086036189M862.2400816846957,95.86230187620265L862.2400816846957,98.24944086036189M862.2400816846957,98.24944086036189L857.725034365101,106.98125249099799M791.2010273294013,61.194950006595136L786.6859800098066,69.92676163723125M809.4846624484757,63.35122486339209L791.2010273294013,61.194950006595136M862.2400816846957,95.86230187620265L857.725034365101,104.59411350683875M880.5237168037701,98.01857673299959L862.2400816846957,95.86230187620265" style="fill:none;stroke:rgb(0,0,0);stroke-width:1;stroke-linecap:round"></path><path d="M880.5237168037701,100.40571571715881L862.2400816846957,98.24944086036187L862.2400816846957,95.86230187620264zM733.9305607735864,44.49530502261824L738.4456080931812,35.76349339198214L720.1619729741069,33.6072185351852zM880.5237168037701,98.01857673299958L880.5237168037701,100.40571571715881L862.2400816846957,95.86230187620264z" style="fill:rgb(238,238,238); fill-opacity: 0.4"></path><path d="M880.5237168037701,98.01857673299959L880.5237168037701,100.40571571715883M880.5237168037701,100.40571571715883L876.0086694841754,109.13752734779493M809.4846624484757,63.35122486339209L804.969615128881,72.08303649402819" style="fill:none;stroke:rgb(0,0,0);stroke-width:1;stroke-linecap:round"></path><path d="M804.969615128881,72.08303649402818L804.969615128881,127.04894137907304L809.4846624484757,63.351224863392076z" style="fill:rgb(238,238,238); fill-opacity: 0.4"></path><path d="M880.5237168037701,98.01857673299959L876.0086694841754,106.7503883636357M596.3674993825927,-56.28658927043084L578.0838642635183,-58.44286412722777M578.0838642635183,-58.44286412722777L573.5688169439235,-49.71105249659168" style="fill:none;stroke:rgb(0,0,0);stroke-width:1;stroke-linecap:round"></path><path d="M838.2108906559835,103.87615675268395L839.759647323542,105.004641920782L857.3447870856955,101.1106924831482z" style="fill:rgb(0,0,0)"></path><path d="M862.2400816846957,95.86230187620264L862.2400816846957,98.24944086036187L857.725034365101,104.59411350683875zM857.725034365101,106.98125249099799L862.2400816846957,98.24944086036187L880.5237168037701,100.40571571715881zM715.6469256545122,42.3390301658213L733.9305607735864,44.49530502261824L720.1619729741069,33.6072185351852z" style="fill:rgb(238,238,238); fill-opacity: 0.4"></path><path d="M840.7168315470027,92.35757156327435L838.8024631000812,96.05983722893126L857.3447870856955,101.1106924831482z" style="fill:rgb(0,0,0)"></path><path d="M786.6859800098066,69.92676163723125L786.6859800098066,124.8926665222761L804.969615128881,72.08303649402818zM804.969615128881,72.08303649402818L809.4846624484757,63.351224863392076L791.2010273294013,61.194950006595136z" style="fill:rgb(238,238,238); fill-opacity: 0.4"></path><path d="M838.8024631000812,96.05983722893126L838.2108906559835,103.87615675268395L857.3447870856955,101.1106924831482z" style="fill:rgb(0,0,0)"></path><path d="M596.3674993825927,-56.28658927043084L591.8524520629978,-47.554777639794736" style="fill:none;stroke:rgb(0,0,0);stroke-width:1;stroke-linecap:round"></path><path d="M876.0086694841754,106.7503883636357L880.5237168037701,98.01857673299958L862.2400816846957,95.86230187620264zM876.0086694841754,109.13752734779493L880.5237168037701,100.40571571715881L880.5237168037701,98.01857673299958zM862.2400816846957,98.24944086036187L857.725034365101,106.98125249099799L857.725034365101,104.59411350683875z" style="fill:rgb(238,238,238); fill-opacity: 0.4"></path><path d="M715.6469256545121,42.33903016582129L733.9305607735864,44.49530502261823" style="fill:none;stroke:rgb(0,0,0);stroke-width:1;stroke-linecap:round"></path><path d="M845.6718682601397,105.71475808335192h27.170087046977937v13.585043523489162h-27.170087046977937z" style="fill:rgb(255,255,255)"></path><path d="M786.6859800098066,69.92676163723125L804.969615128881,72.08303649402818L791.2010273294013,61.194950006595136zM591.8524520629978,-47.55477763979475L596.3674993825927,-56.28658927043084L578.0838642635183,-58.44286412722778zM857.725034365101,104.59411350683875L876.0086694841754,106.7503883636357L862.2400816846957,95.86230187620264zM876.0086694841754,109.13752734779493L857.725034365101,106.98125249099799L880.5237168037701,100.40571571715881zM876.0086694841754,106.7503883636357L876.0086694841754,109.13752734779493L880.5237168037701,98.01857673299958z" style="fill:rgb(238,238,238); fill-opacity: 0.4"></path><path d="M857.725034365101,106.98125249099799L876.0086694841754,109.13752734779493M857.725034365101,104.59411350683875L857.725034365101,106.98125249099799M786.6859800098066,69.92676163723125L804.969615128881,72.08303649402819" style="fill:none;stroke:rgb(0,0,0);stroke-width:1;stroke-linecap:round"></path><path d="M573.5688169439235,-49.71105249659169L591.8524520629978,-47.55477763979475L578.0838642635183,-58.44286412722778z" style="fill:rgb(238,238,238); fill-opacity: 0.4"></path><path d="M857.725034365101,104.59411350683875L876.0086694841754,106.7503883636357" style="fill:none;stroke:rgb(0,0,0);stroke-width:1;stroke-linecap:round"></path><path d="M857.725034365101,104.59411350683875L857.725034365101,106.98125249099799L876.0086694841754,106.7503883636357zM857.725034365101,106.98125249099799L876.0086694841754,109.13752734779493L876.0086694841754,106.7503883636357z" style="fill:rgb(238,238,238); fill-opacity: 0.4"></path><path d="M876.0086694841754,106.7503883636357L876.0086694841754,109.13752734779493M573.5688169439235,-49.71105249659168L591.8524520629978,-47.554777639794736M667.406553737887,-63.348458713134185L649.1229186188126,-65.50473356993112M649.1229186188126,-65.50473356993112L644.6078712992179,-56.772921939295024M667.406553737887,-63.348458713134185L662.8915064182922,-54.61664708249809" style="fill:none;stroke:rgb(0,0,0);stroke-width:1;stroke-linecap:round"></path><path d="M662.8915064182922,-54.61664708249809L667.406553737887,-63.348458713134185L649.1229186188126,-65.50473356993112zM644.6078712992179,-56.77292193929504L662.8915064182922,-54.61664708249809L649.1229186188126,-65.50473356993112z" style="fill:rgb(238,238,238); fill-opacity: 0.4"></path><path d="M644.6078712992179,-56.772921939295024L662.8915064182922,-54.61664708249809" style="fill:none;stroke:rgb(0,0,0);stroke-width:1;stroke-linecap:round"></path></svg>